<mxfile host="app.diagrams.net" modified="2023-06-14T06:25:09.973Z" agent="Mozilla/5.0 (Windows NT 10.0; Win64; x64) AppleWebKit/537.36 (KHTML, like Gecko) Chrome/114.0.0.0 Safari/537.36" version="21.3.8" etag="SHDvbELC7u-o_DpLWT-H" type="github" pages="3">
  <diagram id="2Bio6661NEroopxspY8U" name="Расположеление систем">
    <mxGraphModel dx="1434" dy="796" grid="1" gridSize="10" guides="1" tooltips="1" connect="1" arrows="1" fold="1" page="1" pageScale="1" pageWidth="827" pageHeight="1169" math="0" shadow="0">
      <root>
        <mxCell id="0" />
        <mxCell id="1" parent="0" />
        <mxCell id="YRYPdflQ5GGaUgDDjJ6e-1" value="Расположеление систем" style="text;strokeColor=none;fillColor=none;html=1;fontSize=24;fontStyle=1;verticalAlign=middle;align=center;" vertex="1" parent="1">
          <mxGeometry x="209" y="20" width="410" height="40" as="geometry" />
        </mxCell>
        <mxCell id="YRYPdflQ5GGaUgDDjJ6e-19" value="" style="group;fillColor=none;fillStyle=hatch;strokeColor=none;" vertex="1" connectable="0" parent="1">
          <mxGeometry x="515" y="70" width="310" height="360" as="geometry" />
        </mxCell>
        <mxCell id="YRYPdflQ5GGaUgDDjJ6e-18" value="" style="verticalLabelPosition=bottom;verticalAlign=top;html=1;shape=mxgraph.basic.rect;fillColor2=none;strokeWidth=1;size=20;indent=5;" vertex="1" parent="YRYPdflQ5GGaUgDDjJ6e-19">
          <mxGeometry width="310" height="360" as="geometry" />
        </mxCell>
        <mxCell id="YRYPdflQ5GGaUgDDjJ6e-2" value="" style="sketch=0;pointerEvents=1;shadow=0;dashed=0;html=1;strokeColor=none;labelPosition=center;verticalLabelPosition=bottom;verticalAlign=top;align=center;fillColor=#505050;shape=mxgraph.mscae.oms.log_management" vertex="1" parent="YRYPdflQ5GGaUgDDjJ6e-19">
          <mxGeometry x="5" y="100" width="41" height="50" as="geometry" />
        </mxCell>
        <mxCell id="YRYPdflQ5GGaUgDDjJ6e-3" value="" style="sketch=0;pointerEvents=1;shadow=0;dashed=0;html=1;strokeColor=none;labelPosition=center;verticalLabelPosition=bottom;verticalAlign=top;align=center;fillColor=#505050;shape=mxgraph.mscae.oms.config_assessment" vertex="1" parent="YRYPdflQ5GGaUgDDjJ6e-19">
          <mxGeometry x="5" y="40" width="50" height="45" as="geometry" />
        </mxCell>
        <mxCell id="YRYPdflQ5GGaUgDDjJ6e-4" value="" style="sketch=0;pointerEvents=1;shadow=0;dashed=0;html=1;strokeColor=none;labelPosition=center;verticalLabelPosition=bottom;verticalAlign=top;align=center;fillColor=#505050;shape=mxgraph.mscae.oms.dashboard" vertex="1" parent="YRYPdflQ5GGaUgDDjJ6e-19">
          <mxGeometry x="5" y="170" width="50" height="41" as="geometry" />
        </mxCell>
        <mxCell id="YRYPdflQ5GGaUgDDjJ6e-6" value="" style="sketch=0;pointerEvents=1;shadow=0;dashed=0;html=1;strokeColor=none;labelPosition=center;verticalLabelPosition=bottom;verticalAlign=top;align=center;fillColor=#505050;shape=mxgraph.mscae.oms.security" vertex="1" parent="YRYPdflQ5GGaUgDDjJ6e-19">
          <mxGeometry x="5" y="230" width="50" height="50" as="geometry" />
        </mxCell>
        <mxCell id="YRYPdflQ5GGaUgDDjJ6e-8" value="&lt;b&gt;&lt;font style=&quot;font-size: 17px;&quot;&gt;Легенда&lt;/font&gt;&lt;/b&gt;" style="text;html=1;strokeColor=none;fillColor=none;align=center;verticalAlign=middle;whiteSpace=wrap;rounded=0;" vertex="1" parent="YRYPdflQ5GGaUgDDjJ6e-19">
          <mxGeometry x="125" width="60" height="30" as="geometry" />
        </mxCell>
        <mxCell id="YRYPdflQ5GGaUgDDjJ6e-11" value="Сервер архивации кофигураций оборудования" style="text;html=1;strokeColor=none;fillColor=none;align=center;verticalAlign=middle;whiteSpace=wrap;rounded=0;" vertex="1" parent="YRYPdflQ5GGaUgDDjJ6e-19">
          <mxGeometry x="55" y="47.5" width="230" height="30" as="geometry" />
        </mxCell>
        <mxCell id="YRYPdflQ5GGaUgDDjJ6e-12" value="Сервер хранения лог файлов" style="text;html=1;strokeColor=none;fillColor=none;align=center;verticalAlign=middle;whiteSpace=wrap;rounded=0;fontStyle=0" vertex="1" parent="YRYPdflQ5GGaUgDDjJ6e-19">
          <mxGeometry x="65" y="110" width="230" height="30" as="geometry" />
        </mxCell>
        <mxCell id="YRYPdflQ5GGaUgDDjJ6e-13" value="Стек систем мониторинга" style="text;html=1;strokeColor=none;fillColor=none;align=center;verticalAlign=middle;whiteSpace=wrap;rounded=0;" vertex="1" parent="YRYPdflQ5GGaUgDDjJ6e-19">
          <mxGeometry x="65" y="175.5" width="230" height="30" as="geometry" />
        </mxCell>
        <mxCell id="YRYPdflQ5GGaUgDDjJ6e-14" value="Сервер централизированной авторизации, аутентификации и аккаунтинга" style="text;html=1;strokeColor=none;fillColor=none;align=center;verticalAlign=middle;whiteSpace=wrap;rounded=0;" vertex="1" parent="YRYPdflQ5GGaUgDDjJ6e-19">
          <mxGeometry x="65" y="240" width="230" height="30" as="geometry" />
        </mxCell>
        <mxCell id="YRYPdflQ5GGaUgDDjJ6e-15" value="" style="sketch=0;pointerEvents=1;shadow=0;dashed=0;html=1;strokeColor=none;labelPosition=center;verticalLabelPosition=bottom;verticalAlign=top;align=center;fillColor=#505050;shape=mxgraph.mscae.oms.solutions" vertex="1" parent="YRYPdflQ5GGaUgDDjJ6e-19">
          <mxGeometry x="5" y="300" width="50" height="49" as="geometry" />
        </mxCell>
        <mxCell id="YRYPdflQ5GGaUgDDjJ6e-16" value="Сервер синхронизации времени" style="text;html=1;strokeColor=none;fillColor=none;align=center;verticalAlign=middle;whiteSpace=wrap;rounded=0;" vertex="1" parent="YRYPdflQ5GGaUgDDjJ6e-19">
          <mxGeometry x="75" y="309.5" width="230" height="30" as="geometry" />
        </mxCell>
      </root>
    </mxGraphModel>
  </diagram>
  <diagram id="1IERlCJwOf2QxX1Jw3TP" name="Архитектура Систем">
    <mxGraphModel dx="1434" dy="796" grid="1" gridSize="10" guides="1" tooltips="1" connect="1" arrows="1" fold="1" page="1" pageScale="1" pageWidth="827" pageHeight="1169" math="0" shadow="0">
      <root>
        <mxCell id="0" />
        <mxCell id="1" parent="0" />
      </root>
    </mxGraphModel>
  </diagram>
  <diagram id="ChGDDQDAuVpaKOpjL5Bo" name="Архитектура NMS">
    <mxGraphModel dx="1434" dy="796" grid="1" gridSize="10" guides="1" tooltips="1" connect="1" arrows="1" fold="1" page="1" pageScale="1" pageWidth="827" pageHeight="1169" math="0" shadow="0">
      <root>
        <mxCell id="0" />
        <mxCell id="1" parent="0" />
        <mxCell id="IdZAvgpWx3jjdMzJClvW-1" value="Title" style="text;strokeColor=none;fillColor=none;html=1;fontSize=24;fontStyle=1;verticalAlign=middle;align=center;" vertex="1" parent="1">
          <mxGeometry x="380" y="10" width="100" height="40" as="geometry" />
        </mxCell>
      </root>
    </mxGraphModel>
  </diagram>
</mxfile>
